<?xml version="1.0" encoding="iso-8859-1"?>
<!-- Generator: Adobe Illustrator 19.0.0, SVG Export Plug-In . SVG Version: 6.00 Build 0)  -->
<svg version="1.1" id="Capa_1" xmlns="http://www.w3.org/2000/svg" xmlns:xlink="http://www.w3.org/1999/xlink" x="0px" y="0px"
	 viewBox="0 0 512.001 512.001" style="enable-background:new 0 0 512.001 512.001;" xml:space="preserve">
<g>
	<g>
		<path d="M467.001,0h-422c-24.812,0-45,20.187-45,45v302c0,24.813,20.187,45,45,45h181l-72,96c-4.971,6.627-3.627,16.03,3,21
			c6.626,4.97,16.029,3.629,21-3l63-84v45c0,8.284,6.716,15,15,15s15-6.716,15-15v-45l63,84c4.97,6.627,14.371,7.971,21,3
			c6.627-4.97,7.971-14.373,3-21l-72-96h181c24.813,0,45-20.187,45-45V45C512.001,20.187,491.815,0,467.001,0z M482.001,347
			c0,8.271-6.729,15-15,15h-422c-8.271,0-15-6.729-15-15V45c0-8.271,6.729-15,15-15h422c8.271,0,15,6.729,15,15V347z"/>
	</g>
</g>
<g>
	<g>
		<path d="M437.001,60h-121c-24.508,0-46.305,11.818-60,30.052C242.307,71.818,220.509,60,196.001,60h-121c-8.284,0-15,6.716-15,15
			v242c0,8.284,6.716,15,15,15c15.88,0,346.12,0,362,0c8.284,0,15-6.716,15-15V75C452.001,66.716,445.286,60,437.001,60z
			 M241.001,302h-151V90h106c24.813,0,45,20.187,45,45V302z M422.001,302h-151V135c0-24.813,20.187-45,45-45h106V302z"/>
	</g>
</g>
<g>
	<g>
		<path d="M377.001,120h-61c-8.284,0-15,6.716-15,15s6.716,15,15,15h61c8.284,0,15-6.716,15-15S385.285,120,377.001,120z"/>
	</g>
</g>
<g>
	<g>
		<path d="M377.001,181h-61c-8.284,0-15,6.716-15,15s6.716,15,15,15h61c8.284,0,15-6.716,15-15S385.286,181,377.001,181z"/>
	</g>
</g>
<g>
	<g>
		<path d="M377.001,241h-61c-8.284,0-15,6.716-15,15s6.716,15,15,15h61c8.284,0,15-6.716,15-15S385.286,241,377.001,241z"/>
	</g>
</g>
<g>
	<g>
		<path d="M196.001,120h-61c-8.284,0-15,6.716-15,15s6.716,15,15,15h61c8.284,0,15-6.716,15-15S204.286,120,196.001,120z"/>
	</g>
</g>
<g>
	<g>
		<path d="M196.001,181h-61c-8.284,0-15,6.716-15,15s6.716,15,15,15h61c8.284,0,15-6.716,15-15S204.286,181,196.001,181z"/>
	</g>
</g>
<g>
	<g>
		<path d="M196.001,241h-61c-8.284,0-15,6.716-15,15s6.716,15,15,15h61c8.284,0,15-6.716,15-15S204.286,241,196.001,241z"/>
	</g>
</g>
<g>
</g>
<g>
</g>
<g>
</g>
<g>
</g>
<g>
</g>
<g>
</g>
<g>
</g>
<g>
</g>
<g>
</g>
<g>
</g>
<g>
</g>
<g>
</g>
<g>
</g>
<g>
</g>
<g>
</g>
</svg>
